Coordinates
nRows=10
nColumns=24

# SIMM Motion File Header:
name Coordinates
datacolumns 24
datarows 10
otherdata 1
range 1.25000000000000000000 1.25900000000000010000

Units are S.I. units (second, meters, Newtons, ...)
Angles are in degrees.

endheader
time	pelvis_tx	pelvis_ty	pelvis_tz	pelvis_tilt	pelvis_list	pelvis_rotation	hip_flexion_r	hip_adduction_r	hip_rotation_r	knee_angle_r	ankle_angle_r	subtalar_angle_r	mtp_angle_r	hip_flexion_l	hip_adduction_l	hip_rotation_l	knee_angle_l	ankle_angle_l	subtalar_angle_l	mtp_angle_l	lumbar_extension	lumbar_bending	lumbar_rotation
      1.25000000000000000000	      0.59373848242853677000	      1.00865574576524410000	      0.05087964921580396400	      4.75214383893938220000	     -4.22908061536193450000	     -4.11077084962156470000	    -21.14312401882702700000	      4.64411613590559110000	      2.87731232488891430000	     -8.25251417134558980000	     13.96369153622598700000	      0.02458290890712657900	     -0.05427819068472064500	     19.02199782124360200000	     -5.42757902823239920000	     -3.48773516628407300000	     -2.84150372995905220000	     -0.60746960158818186000	     -0.00182358327290157300	      0.00282491010737143540	    -16.58511489341331600000	      3.12821072701434980000	      3.85993498684688510000
      1.25100000000000010000	      0.59386216312517737000	      1.00855987272507930000	      0.05083353414720193800	      4.74765528869418580000	     -4.22190008726416720000	     -4.12924121150152160000	    -21.16642015272197600000	      4.61981139219926010000	      2.90633574075815200000	     -8.34249994000969690000	     14.00061916757701200000	      0.02422325236423194700	     -0.05475099964926611500	     19.04570162308203500000	     -5.41341448709272830000	     -3.45895239075082280000	     -2.96442001423399090000	     -0.64109939617980383000	     -0.00179578232944962180	      0.00274013903100436480	    -16.57192890740297000000	      3.09687757849358690000	      3.85726669759582210000
      1.25200000000000000000	      0.59398793194476729000	      1.00846529841020890000	      0.05078707393363882100	      4.74309764125817780000	     -4.21459877549774650000	     -4.14752756741957640000	    -21.18884223317389400000	      4.59556182775438770000	      2.93512866940971270000	     -8.43427847497121870000	     14.03733553469947800000	      0.02385239867260628700	     -0.05522895190526258500	     19.06960456407313800000	     -5.39907691999540870000	     -3.43066411482775370000	     -3.08960532052569810000	     -0.67576303909257895000	     -0.00176837417762929940	      0.00264474177309021550	    -16.55846744512688300000	      3.06532775969388240000	      3.85440639393889350000
      1.25300000000000010000	      0.59411579946684845000	      1.00837206039419120000	      0.05074025820357381400	      4.73847676314005110000	     -4.20718027787268770000	     -4.16562636074969460000	    -21.21038108335908800000	      4.57137354245554310000	      2.96367423337806550000	     -8.52787297294737280000	     14.07379574923439800000	      0.02347037187834645100	     -0.05571070076221115700	     19.09368979293447700000	     -5.38456713913398040000	     -3.40286547043151710000	     -3.21699576328615410000	     -0.71143988607671493000	     -0.00174153218575169300	      0.00253922279219584090	    -16.54473522090237500000	      3.03356671015355990000	      3.85135259071427690000
      1.25400000000000000000	      0.59424577633173592000	      1.00828019959750900000	      0.05069307544437971100	      4.73379875074742440000	     -4.19964778286533850000	     -4.18353398152458840000	    -21.23102729382299700000	      4.54725204530325210000	      2.99195506064316730000	     -8.62330617820374810000	     14.10995184045242800000	      0.02307858772244911600	     -0.05619168172471409500	     19.11794025990438300000	     -5.36988575614982810000	     -3.37555130977854170000	     -3.34652618956944630000	     -0.74811287017036232000	     -0.00171614366000860450	      0.00243096648036600270	    -16.53073711171435900000	      3.00159959790959840000	      3.84810361811360660000
      1.25500000000000010000	      0.59437787258009844000	      1.00818975765982870000	      0.05064551343415187700	      4.72906977378535840000	     -4.19200447883819920000	     -4.20124690324855090000	    -21.25077129084103300000	      4.52320265690171740000	      3.01995348401029420000	     -8.72060128633845190000	     14.14575635964145000000	      0.02267747406473161500	     -0.05667001687220307700	     19.14233875424711700000	     -5.35503364831193810000	     -3.34871649989982730000	     -3.47813207390661330000	     -0.78575991418267299000	     -0.00169219554889938890	      0.00232154998566344760	    -16.51647815787603000000	      2.96943168474045690000	      3.84465790479699000000
      1.25600000000000000000	      0.59451209742571554000	      1.00810077647410080000	      0.05059755927745848000	      4.72429606487850950000	     -4.18425355526156650000	     -4.21876169169196040000	    -21.26960339520530500000	      4.49923048317615400000	      3.04765155951770160000	     -8.81978194130161160000	     14.18116263327102500000	      0.02226647070670733200	     -0.05714691060085031600	     19.16686784579130900000	     -5.34001193519432870000	     -3.32235600293474360000	     -3.61174953225050070000	     -0.82435371640787303000	     -0.00166894287192125340	      0.00220627572745836540	    -16.50196359231335900000	      2.93706831276523860000	      3.84101400003373250000
      1.25700000000000010000	      0.59464845960899582000	      1.00801329966342570000	      0.05054919919715575300	      4.71948397634378040000	     -4.17639803643407780000	     -4.23607496672555590000	    -21.28751375335817600000	      4.47534025788292670000	      3.07503100998070570000	     -8.92087182367785840000	     14.21612367404997500000	      0.02184499184575211900	     -0.05762483823389347200	     19.19150992125704000000	     -5.32482180228674910000	     -3.29646485636846440000	     -3.74731456548023180000	     -0.86386470316895880000	     -0.00164583121306861390	      0.00207828271243896790	    -16.48719880312759800000	      2.90451477008625680000	      3.83717046817971010000
      1.25800000000000000000	      0.59478696758843486000	      1.00792737448616250000	      0.05050041816939023600	      4.71464006619067270000	     -4.16844050610617160000	     -4.25318329707995790000	    -21.30449228105219100000	      4.45153609115782170000	      3.10207309766222660000	     -9.02389409857211430000	     14.25058924077197100000	      0.02141370054201188800	     -0.05810258193969698000	     19.21624721607807700000	     -5.30946424742244450000	     -3.27103778735799810000	     -3.88476206845707360000	     -0.90426755500648037000	     -0.00162277746059412550	      0.00193870679518903970	    -16.47218932858004700000	      2.87177605920117560000	      3.83312569687557940000
      1.25900000000000010000	      0.59492762921630238000	      1.00784305148877840000	      0.05045119990016446600	      4.70977109681751930000	     -4.16038306527837150000	     -4.27008316992003860000	    -21.32052873123202000000	      4.42782140541705970000	      3.12875860694705210000	     -9.12887134085259970000	     14.28450525842722900000	      0.02097465920234789500	     -0.05857421169634500400	     19.24106176791715200000	     -5.29394002006153300000	     -3.24606910840609020000	     -4.02402578567456180000	     -0.94554223872433629000	     -0.00160017896455233520	      0.00179831147752542170	    -16.45694090068374000000	      2.83885684421310950000	      3.82887787392016140000
